<svg xmlns="http://www.w3.org/2000/svg" xmlnsSvgjs="http://svgjs.com/svgjs" xmlnsXlink="http://www.w3.org/1999/xlink" width="288" height="288"><svg xmlns="http://www.w3.org/2000/svg" width="288" height="288" viewBox="0 0 32 32"><g fill="#212738" className="color1C1C1C svgShape"><circle cx="16" cy="3.01" r="1" className="color000 svgShape"/><circle cx="16" cy="29.01" r="1" className="color000 svgShape"/><circle cx="3" cy="16.01" r="1" className="color000 svgShape"/><circle cx="29" cy="16.01" r="1" className="color000 svgShape"/><circle cx="6.808" cy="6.817" r="1" className="color000 svgShape"/><circle cx="25.192" cy="25.202" r="1" className="color000 svgShape"/><circle cx="6.808" cy="25.202" r="1" className="color000 svgShape"/><circle cx="25.192" cy="6.817" r="1" className="color000 svgShape"/></g><path fill="#212738" d="M16 7a9 9 0 0 0-9 9c0 4.971 4.029 9 9 9s9-4.029 9-9a9 9 0 0 0-9-9zm0 17V8a8 8 0 0 1 0 16z" className="color1C1C1C svgShape"/></svg></svg>