<svg xmlns="http://www.w3.org/2000/svg" viewBox="0 0 128 128"><g data-name="katman 2" fill="#6e44ff" className="color000000 svgShape"><path fill="none" stroke="#b33c86" strokeLinecap="round" strokeLinejoin="round" strokeWidth="4" d="M100 60V80.58a12 12 0 0 1-6.16 10.48M28 60V80.58a12 12 0 0 0 6.63 10.74l18.64 9.31a24 24 0 0 0 21.46 0l12.61-6.29" className="colorStrokeF1E4E8 svgStroke"></path><polygon fill="none" stroke="#b33c86" strokeLinecap="round" strokeLinejoin="round" strokeWidth="4" points="12 52 64 78 116 52 64 26 12 52" className="colorStrokeF1E4E8 svgStroke"></polygon><polygon fill="none" stroke="#9A2CA0" strokeLinecap="round" strokeLinejoin="round" strokeWidth="4" points="28 52 64 34 100 52 64 70 28 52" className="colorStrokeffa45a svgStroke"></polygon><ellipse cx="64" cy="52" fill="none" stroke="#b33c86" strokeLinecap="round" strokeLinejoin="round" strokeWidth="4" rx="6" ry="3" className="colorStrokeF1E4E8 svgStroke"></ellipse><polyline fill="none" stroke="#F1E4E8" strokeLinecap="round" strokeLinejoin="round" strokeWidth="4" points="90 84 90 65 68.24 54.12"></polyline><polyline fill="none" stroke="#F1E4E8" strokeLinecap="round" strokeLinejoin="round" strokeWidth="4" points="92.53 93.21 94 105 90 103 86 105 87.48 93.19"></polyline><path fill="none" stroke="#b33c86" strokeLinecap="round" strokeLinejoin="round" strokeWidth="4" d="M94,89.56a4.84,4.84,0,0,1-1,3.17,4.2,4.2,0,0,1-6,0,4.84,4.84,0,0,1-1-3.17C86,86.49,87.79,84,90,84S94,86.49,94,89.56Z" className="colorStrokeF1E4E8 svgStroke"></path><path fill="none" stroke="#9A2CA0" strokeLinecap="round" strokeLinejoin="round" strokeWidth="4" d="M51.88,91l5,2.48a16.1,16.1,0,0,0,14.32,0l5-2.48" className="colorStrokeffa45a svgStroke"></path><rect width="128" height="128" fill="none"></rect></g></svg>