<svg xmlns="http://www.w3.org/2000/svg" xmlnsSvgjs="http://svgjs.com/svgjs" xmlnsXlink="http://www.w3.org/1999/xlink" width="288" height="288"><svg xmlns="http://www.w3.org/2000/svg" width="288" height="288" viewBox="0 0 32 32"><g fill="#212738" className="color1C1C1C svgShape"><path d="M16 6a1 1 0 001-1V1a1 1 0 00-2 0v4a1 1 0 001 1zM16 26a1 1 0 00-1 1v4a1 1 0 002 0v-4a1 1 0 00-1-1zM6 16a1 1 0 00-1-1H1a1 1 0 000 2h4a1 1 0 001-1zM31 15h-4a1 1 0 000 2h4a1 1 0 000-2zM7.515 8.929a.999.999 0 101.414-1.414L6.101 4.686A.999.999 0 104.687 6.1l2.828 2.829zM24.485 23.071a.999.999 0 10-1.414 1.414l2.828 2.828a1 1 0 101.414-1.414l-2.828-2.828zM7.515 23.071l-2.828 2.828a.999.999 0 101.414 1.414l2.828-2.828a.999.999 0 10-1.414-1.414zM24.485 8.929L27.314 6.1A.999.999 0 1025.9 4.686l-2.828 2.828a.999.999 0 101.413 1.415zM16 7a9 9 0 00-9 9c0 4.971 4.029 9 9 9s9-4.029 9-9a9 9 0 00-9-9zm0 17V8a8 8 0 010 16z" className="color000 svgShape"/></g></svg></svg>